# xmcd
#
# Track frame offsets:
# 150
# 15000
# 32807
# 43080
# 56737
# 62793
# 71811
# 96936
# 110331
# 116717
#
# Disc length: 1860 seconds
#
# Revision: 0
# Processed by: cddbd v1.4PL0 Copyright (c) Steve Scherf et al.
# Submitted via: Audion 3.0.2 (http://www.panic.com/audion/)
#
DISCID=8707420a
DTITLE=colored carp ensemble - kuroi usagi dan soundtracks vol.2
DYEAR=1900
DGENRE=
TTITLE0=eeeee
TTITLE1=ddddd
TTITLE2=sssss
TTITLE3=fffff
TTITLE4=nnnnn
TTITLE5=bbbbb
TTITLE6=mmmmm
TTITLE7=ccccc
TTITLE8=aaaaa
TTITLE9=ppppp
EXTD=
EXTT0=
EXTT1=
EXTT2=
EXTT3=
EXTT4=
EXTT5=
EXTT6=
EXTT7=
EXTT8=
EXTT9=
PLAYORDER=
